<svg width="486" height="486" viewBox="0 0 486 486" fill="none" xmlns="http://www.w3.org/2000/svg">
<path fill-rule="evenodd" clip-rule="evenodd" d="M14.9688 14.9688C24.9271 5.01041 41.0729 5.01041 51.0312 14.9688L471.031 434.969C480.99 444.927 480.99 461.073 471.031 471.031C461.073 480.99 444.927 480.99 434.969 471.031L14.9688 51.0312C5.01041 41.0729 5.01041 24.9271 14.9688 14.9688Z" fill="#000000" stroke="#000000" stroke-width="14" stroke-linecap="round" stroke-linejoin="round"/>
<path fill-rule="evenodd" clip-rule="evenodd" d="M14.9688 471.031C5.01041 461.073 5.01041 444.927 14.9688 434.969L434.969 14.9688C444.927 5.01041 461.073 5.01041 471.031 14.9688C480.99 24.9272 480.99 41.0728 471.031 51.0312L51.0312 471.031C41.0729 480.99 24.9271 480.99 14.9688 471.031Z" fill="#000000" stroke="#000000" stroke-width="14" stroke-linecap="round" stroke-linejoin="round"/>
</svg>
