<svg width="934" height="934" viewBox="0 0 934 934" fill="none" xmlns="http://www.w3.org/2000/svg">
<path d="M674.176 459.628C674.176 471.051 683.461 480.417 694.965 480.417C706.468 480.417 715.754 471.132 715.754 459.628C715.673 318.464 600.886 203.672 459.71 203.672C318.545 203.672 203.666 318.465 203.666 459.628C203.666 600.793 318.539 715.584 459.622 715.584C471.045 715.584 480.41 706.299 480.41 694.795C480.41 683.292 471.125 674.006 459.622 674.006C341.378 674.006 245.161 577.79 245.161 459.546C245.161 341.302 341.378 245.085 459.622 245.085C577.866 245.085 674.156 341.389 674.156 459.619L674.176 459.628Z" fill="#32404F"/>
<path d="M459.713 362.756C513.12 362.756 556.589 406.225 556.589 459.631C556.589 471.055 565.874 480.42 577.378 480.42C588.887 480.42 598.172 471.135 598.172 459.631C598.172 383.298 536.133 321.258 459.799 321.258C383.464 321.258 321.346 383.377 321.346 459.631C321.346 535.886 383.385 598.005 459.719 598.005C471.143 598.005 480.508 588.72 480.508 577.216C480.508 565.793 471.223 556.428 459.719 556.428C406.313 556.428 362.844 512.959 362.844 459.552C362.838 406.14 406.307 362.756 459.715 362.756H459.713Z" fill="#32404F"/>
<path d="M641.318 611.976L693.825 597.434C703.03 594.89 709.272 586.424 709.025 576.892C708.779 567.361 702.038 559.227 692.753 557.17L550.437 525.698C536.142 522.414 522.335 536.135 525.705 550.429L557.177 692.746C559.229 702.031 567.368 708.772 576.899 709.018H577.473C586.758 709.018 594.977 702.771 597.441 693.818L611.982 641.311L694.232 723.561C702.365 731.694 715.513 731.694 723.566 723.561C731.699 715.427 731.699 702.279 723.566 694.226L641.318 611.976Z" fill="#32404F"/>
</svg>
