<svg width="934" height="934" viewBox="0 0 934 934" fill="none" xmlns="http://www.w3.org/2000/svg">
<path fill-rule="evenodd" clip-rule="evenodd" d="M397.452 353.94H639.657C651.124 353.94 660.419 344.476 660.419 332.803C660.419 321.129 651.124 311.667 639.657 311.667H397.452C385.987 311.667 376.69 321.129 376.69 332.803C376.69 344.476 385.987 353.94 397.452 353.94ZM293.676 487.801H639.657C651.124 487.801 660.419 478.338 660.419 466.664C660.419 454.991 651.124 445.527 639.657 445.527H293.676C282.211 445.527 272.914 454.991 272.914 466.664C272.914 478.338 282.211 487.801 293.676 487.801V487.801ZM397.452 621.667H639.657C651.124 621.667 660.419 612.202 660.419 600.53C660.419 588.857 651.124 579.393 639.657 579.393H397.452C385.987 579.393 376.69 588.857 376.69 600.53C376.69 612.202 385.987 621.667 397.452 621.667Z" fill="#32404F"/>
</svg>
